{
  "accessors": [
    {
      "bufferView": 2,
      "componentType": 5126,
      "count": 96,
      "max": [
        1.0112912654876709,
        1.054901123046875,
        1.0361344814300537
      ],
      "min": [
        -1.0574414730072021,
        -1.013831615447998,
        -1.0325982570648193
      ],
      "type": "VEC3"
    },
    {
      "bufferView": 2,
      "byteOffset": 1152,
      "componentType": 5126,
      "count": 96,
      "max": [
        0.88025695085525513,
        0.92385751008987427,
        0.85069692134857178
      ],
      "min": [
        -0.88025695085525513,
        -0.92385751008987427,
        -0.85069692134857178
      ],
      "type": "VEC3"
    },
    {
      "bufferView": 3,
      "componentType": 5126,
      "count": 96,
      "max": [
        0.92452019453048706,
        0.90510338544845581,
        0.94519263505935669,
        1
      ],
      "min": [
        -0.94749552011489868,
        -0.90510338544845581,
        -0.89702588319778442,
        1
      ],
      "type": "VEC4"
    },
    {
      "bufferView": 1,
      "componentType": 5126,
      "count": 96,
      "max": [
        0.99229270219802856,
        0.90868961811065674
      ],
      "min": [
        0.0077073359861969948,
        0.0077073359861969948
      ],
      "type": "VEC2"
    },
    {
      "bufferView": 1,
      "byteOffset": 768,
      "componentType": 5126,
      "count": 96,
      "max": [
        0.99229270219802856,
        0.90868961811065674
      ],
      "min": [
        0.0077073359861969948,
        0.0077073359861969948
      ],
      "type": "VEC2"
    },
    {
      "bufferView": 1,
      "byteOffset": 1536,
      "componentType": 5126,
      "count": 96,
      "max": [
        0.99229270219802856,
        0.90868961811065674
      ],
      "min": [
        0.0077073359861969948,
        0.0077073359861969948
      ],
      "type": "VEC2"
    },
    {
      "bufferView": 0,
      "componentType": 5125,
      "count": 180,
      "max": [
        95
      ],
      "min": [
        0
      ],
      "type": "SCALAR"
    },
    {
      "bufferView": 2,
      "byteOffset": 2304,
      "componentType": 5126,
      "count": 60,
      "max": [
        0.51195013523101807,
        1.6163066625595093,
        0.51195007562637329
      ],
      "min": [
        -0.51194995641708374,
        0.98733425140380859,
        -0.51195007562637329
      ],
      "type": "VEC3"
    },
    {
      "bufferView": 2,
      "byteOffset": 3024,
      "componentType": 5126,
      "count": 60,
      "max": [
        1,
        0.80419206619262695,
        1
      ],
      "min": [
        -1,
        0,
        -1
      ],
      "type": "VEC3"
    },
    {
      "bufferView": 3,
      "byteOffset": 1536,
      "componentType": 5126,
      "count": 60,
      "max": [
        1,
        1,
        1,
        1
      ],
      "min": [
        -0.80413347482681274,
        -1,
        -1,
        1
      ],
      "type": "VEC4"
    },
    {
      "bufferView": 1,
      "byteOffset": 2304,
      "componentType": 5126,
      "count": 60,
      "max": [
        0.75972443819046021,
        0.95811557769775391
      ],
      "min": [
        0.0077073359861969948,
        0.28264650702476501
      ],
      "type": "VEC2"
    },
    {
      "bufferView": 1,
      "byteOffset": 2784,
      "componentType": 5126,
      "count": 60,
      "max": [
        0.75972443819046021,
        0.95811557769775391
      ],
      "min": [
        0.0077073359861969948,
        0.28264650702476501
      ],
      "type": "VEC2"
    },
    {
      "bufferView": 1,
      "byteOffset": 3264,
      "componentType": 5126,
      "count": 60,
      "max": [
        0.75972443819046021,
        0.95811557769775391
      ],
      "min": [
        0.0077073359861969948,
        0.28264650702476501
      ],
      "type": "VEC2"
    },
    {
      "bufferView": 0,
      "byteOffset": 720,
      "componentType": 5125,
      "count": 144,
      "max": [
        59
      ],
      "min": [
        0
      ],
      "type": "SCALAR"
    },
    {
      "bufferView": 2,
      "byteOffset": 3744,
      "componentType": 5126,
      "count": 97,
      "max": [
        2.2860531806945801,
        0.75314813852310181,
        0.75314801931381226
      ],
      "min": [
        1.5920685529708862,
        -0.75314801931381226,
        -0.75314801931381226
      ],
      "type": "VEC3"
    },
    {
      "bufferView": 2,
      "byteOffset": 4908,
      "componentType": 5126,
      "count": 97,
      "max": [
        1,
        0.87318378686904907,
        0.87318378686904907
      ],
      "min": [
        -1,
        -0.87318378686904907,
        -0.87318378686904907
      ],
      "type": "VEC3"
    },
    {
      "bufferView": 3,
      "byteOffset": 2496,
      "componentType": 5126,
      "count": 97,
      "max": [
        0.87319594621658325,
        0.63021725416183472,
        1,
        1
      ],
      "min": [
        -0.87316811084747314,
        -0.63021725416183472,
        -1,
        1
      ],
      "type": "VEC4"
    },
    {
      "bufferView": 1,
      "byteOffset": 3744,
      "componentType": 5126,
      "count": 97,
      "max": [
        0.88983047008514404,
        0.84599488973617554
      ],
      "min": [
        0.37378719449043274,
        0.0077073359861969948
      ],
      "type": "VEC2"
    },
    {
      "bufferView": 1,
      "byteOffset": 4520,
      "componentType": 5126,
      "count": 97,
      "max": [
        0.88983047008514404,
        0.84599488973617554
      ],
      "min": [
        0.37378719449043274,
        0.0077073359861969948
      ],
      "type": "VEC2"
    },
    {
      "bufferView": 1,
      "byteOffset": 5296,
      "componentType": 5126,
      "count": 97,
      "max": [
        0.88983047008514404,
        0.84599488973617554
      ],
      "min": [
        0.37378719449043274,
        0.0077073359861969948
      ],
      "type": "VEC2"
    },
    {
      "bufferView": 0,
      "byteOffset": 1296,
      "componentType": 5125,
      "count": 264,
      "max": [
        96
      ],
      "min": [
        0
      ],
      "type": "SCALAR"
    },
    {
      "bufferView": 4,
      "componentType": 5126,
      "count": 29,
      "max": [
        2.5
      ],
      "min": [
        0.041666667908430099
      ],
      "type": "SCALAR"
    },
    {
      "bufferView": 5,
      "componentType": 5126,
      "count": 29,
      "max": [
        0.0086227655410766602,
        0,
        -0
      ],
      "min": [
        -0.058478206396102905,
        0,
        -0
      ],
      "type": "VEC3"
    },
    {
      "bufferView": 4,
      "byteOffset": 116,
      "componentType": 5126,
      "count": 18,
      "max": [
        2.5
      ],
      "min": [
        0.041666667908430099
      ],
      "type": "SCALAR"
    },
    {
      "bufferView": 6,
      "componentType": 5126,
      "count": 18,
      "max": [
        0,
        0,
        -0,
        1
      ],
      "min": [
        -0.25881904363632202,
        0,
        -0,
        0.96592581272125244
      ],
      "type": "VEC4"
    }
  ],
  "animations": [
    {
      "channels": [
        {
          "sampler": 0,
          "target": {
            "node": 8,
            "path": "translation"
          }
        },
        {
          "sampler": 1,
          "target": {
            "node": 8,
            "path": "rotation"
          }
        }
      ],
      "name": "Animation",
      "samplers": [
        {
          "input": 21,
          "interpolation": "LINEAR",
          "output": 22
        },
        {
          "input": 23,
          "interpolation": "LINEAR",
          "output": 24
        }
      ]
    }
  ],
  "asset": {
    "extras": {
      "author": "ZeroCardinal (https://sketchfab.com/ZeroCardinal)",
      "license": "CC-BY-4.0 (http://creativecommons.org/licenses/by/4.0/)",
      "source": "https://sketchfab.com/3d-models/low-poly-emergency-button-d4e61a2f1afb447aa381b912c9a68a90",
      "title": "Low Poly Emergency Button"
    },
    "generator": "Sketchfab-10.3.0",
    "version": "2.0"
  },
  "bufferViews": [
    {
      "buffer": 0,
      "byteLength": 2352,
      "byteOffset": 0,
      "name": "floatBufferViews",
      "target": 34963
    },
    {
      "buffer": 0,
      "byteLength": 6072,
      "byteOffset": 2352,
      "byteStride": 8,
      "name": "floatBufferViews",
      "target": 34962
    },
    {
      "buffer": 0,
      "byteLength": 6072,
      "byteOffset": 8424,
      "byteStride": 12,
      "name": "floatBufferViews",
      "target": 34962
    },
    {
      "buffer": 0,
      "byteLength": 4048,
      "byteOffset": 14496,
      "byteStride": 16,
      "name": "floatBufferViews",
      "target": 34962
    },
    {
      "buffer": 0,
      "byteLength": 188,
      "byteOffset": 18544,
      "name": "floatBufferViews"
    },
    {
      "buffer": 0,
      "byteLength": 348,
      "byteOffset": 18732,
      "byteStride": 12,
      "name": "floatBufferViews"
    },
    {
      "buffer": 0,
      "byteLength": 288,
      "byteOffset": 19080,
      "byteStride": 16,
      "name": "floatBufferViews"
    }
  ],
  "buffers": [
    {
      "byteLength": 19368,
      "uri": "scene.bin"
    }
  ],
  "images": [
    {
      "uri": "textures/Material.002_baseColor.png"
    },
    {
      "uri": "textures/Material.002_metallicRoughness.png"
    },
    {
      "uri": "textures/Material.002_normal.png"
    }
  ],
  "materials": [
    {
      "doubleSided": true,
      "emissiveFactor": [
        0,
        0,
        0
      ],
      "name": "Material.002",
      "normalTexture": {
        "index": 2,
        "scale": 1,
        "texCoord": 0
      },
      "pbrMetallicRoughness": {
        "baseColorFactor": [
          1,
          1,
          1,
          1
        ],
        "baseColorTexture": {
          "index": 0,
          "texCoord": 0
        },
        "metallicFactor": 1,
        "metallicRoughnessTexture": {
          "index": 1,
          "texCoord": 0
        },
        "roughnessFactor": 1
      }
    }
  ],
  "meshes": [
    {
      "primitives": [
        {
          "attributes": {
            "NORMAL": 1,
            "POSITION": 0,
            "TANGENT": 2,
            "TEXCOORD_0": 3,
            "TEXCOORD_1": 4,
            "TEXCOORD_2": 5
          },
          "indices": 6,
          "material": 0,
          "mode": 4
        }
      ]
    },
    {
      "primitives": [
        {
          "attributes": {
            "NORMAL": 8,
            "POSITION": 7,
            "TANGENT": 9,
            "TEXCOORD_0": 10,
            "TEXCOORD_1": 11,
            "TEXCOORD_2": 12
          },
          "indices": 13,
          "material": 0,
          "mode": 4
        }
      ]
    },
    {
      "primitives": [
        {
          "attributes": {
            "NORMAL": 15,
            "POSITION": 14,
            "TANGENT": 16,
            "TEXCOORD_0": 17,
            "TEXCOORD_1": 18,
            "TEXCOORD_2": 19
          },
          "indices": 20,
          "material": 0,
          "mode": 4
        }
      ]
    }
  ],
  "nodes": [
    {
      "children": [
        1
      ],
      "name": "RootNode (gltf orientation matrix)",
      "rotation": [
        -0.70710678118654746,
        -0,
        -0,
        0.70710678118654757
      ]
    },
    {
      "children": [
        2
      ],
      "name": "RootNode (model correction matrix)"
    },
    {
      "children": [
        3
      ],
      "name": "root"
    },
    {
      "children": [
        4,
        6,
        8
      ],
      "matrix": [
        1,
        0,
        0,
        0,
        0,
        2.2204460492503131e-16,
        1,
        0,
        0,
        -1,
        2.2204460492503131e-16,
        0,
        0,
        0,
        0,
        1
      ],
      "name": "GLTF_SceneRootNode"
    },
    {
      "children": [
        5
      ],
      "name": "Boitier_0"
    },
    {
      "mesh": 0,
      "name": ""
    },
    {
      "children": [
        7
      ],
      "name": "PoussoirFrame_1",
      "rotation": [
        0,
        0,
        -0.70710676908493042,
        0.7071068286895752
      ]
    },
    {
      "mesh": 1,
      "name": ""
    },
    {
      "children": [
        9
      ],
      "name": "Bouton_2",
      "translation": [
        0.0086227655410766602,
        0,
        0
      ]
    },
    {
      "mesh": 2,
      "name": ""
    }
  ],
  "samplers": [
    {
      "magFilter": 9729,
      "minFilter": 9987,
      "wrapS": 10497,
      "wrapT": 10497
    }
  ],
  "scene": 0,
  "scenes": [
    {
      "name": "OSG_Scene",
      "nodes": [
        0
      ]
    }
  ],
  "textures": [
    {
      "sampler": 0,
      "source": 0
    },
    {
      "sampler": 0,
      "source": 1
    },
    {
      "sampler": 0,
      "source": 2
    }
  ]
}

